# xmcd
#
# Track frame offsets: 
#        150
#        11425
#        24895
#        38473
#        50502
#        65641
#        82606
#        95376
#        109730
#        124821
#        138735
#        147608
#        166479
#        184633
#        203669
#        213538
#        228064
#        241686
#        255556
#        272089
#        283558
#        297496
#        312839
#        325923
#        339942
#
# Disc length: 4696 seconds
#
# Revision: 0
# Processed by: cddbd v1.4PL0 Copyright (c) Steve Scherf et al.
# Submitted via: ExactAudioCopy v0.90b4
#
DISCID=5d125619
DTITLE=Various Artist - 50 Blues Greats Disc 1
DYEAR=1999
DGENRE=Blues
TTITLE0=John Lee Hooker/Boom Boom
TTITLE1=Sonny Boy Williamson/Good Morning Little Schoolgirl
TTITLE2=Robert Johnson/Terraplane Blues
TTITLE3=Big Joe Williams/Baby Please Don't Go
TTITLE4=Jimmy Reed/Down At The Corner Grocery Store
TTITLE5=John Lee Hooker/Goin' Mad Blues
TTITLE6=Crippled Clarence Lofton/Pine Top's Boogie Woogie
TTITLE7=Billy Boy Arnold with Tony McPhee/I Wish You Would
TTITLE8=Louisiana Reed/You're Gonna Need Me
TTITLE9=Eddie Clearwater/Mayor Dayley's Blues
TTITLE10=Syther Smith/Come On In This House
TTITLE11=Clarence Edwards/Still A Fool
TTITLE12=Buddy Guy and Junior Wells/In My Younger Days
TTITLE13=Sunnyland Slim/Soft and Mellow Stella
TTITLE14=Fenton Robinson/Somebody Loan Me a Dime
TTITLE15=Bo Didley/Mona
TTITLE16=King Biscuit Boy with the Bonnie Hawkins Band/Neighbour Neigh
TTITLE16=bour
TTITLE17=Lightnin Hopkins/War Is Starting Again
TTITLE18=Jimmie Johnson/When My First Wife Quit Me
TTITLE19=Magic Slim/Ship Made of Paper
TTITLE20=Blind Willie McTell/Scary Day Blues
TTITLE21=Muddie Waters/Country Blues
TTITLE22=John Lee Hooker/I'm So Excited
TTITLE23=Leadbelly/Midnight Special
TTITLE24=Chippie Hill/Trouble In Mind
EXTD=
EXTT0=
EXTT1=
EXTT2=
EXTT3=
EXTT4=
EXTT5=
EXTT6=
EXTT7=
EXTT8=
EXTT9=
EXTT10=
EXTT11=
EXTT12=
EXTT13=
EXTT14=
EXTT15=
EXTT16=
EXTT17=
EXTT18=
EXTT19=
EXTT20=
EXTT21=
EXTT22=
EXTT23=
EXTT24=
PLAYORDER=
